<?xml version="1.0" standalone="no"?>
<!DOCTYPE svg PUBLIC "-//W3C//DTD SVG 20010904//EN"
 "http://www.w3.org/TR/2001/REC-SVG-20010904/DTD/svg10.dtd">
<svg version="1.0" xmlns="http://www.w3.org/2000/svg"
 width="1240.000000pt" height="1240.000000pt" viewBox="0 0 1240.000000 1240.000000"
 preserveAspectRatio="xMidYMid meet">
<metadata>
Created by potrace 1.11, written by Peter Selinger 2001-2013
</metadata>
<g transform="translate(0.000000,1240.000000) scale(0.100000,-0.100000)"
fill="#000000" stroke="none">
<path d="M7820 10143 c-175 -12 -400 -54 -600 -109 -85 -24 -596 -205 -1773
-628 -208 -75 -385 -136 -393 -136 -8 0 -14 4 -14 10 0 5 -9 34 -21 65 l-20
55 -547 0 -547 0 -279 -743 c-154 -408 -325 -863 -382 -1012 -56 -148 -162
-432 -237 -630 -75 -198 -302 -801 -505 -1340 -204 -539 -469 -1243 -590
-1565 -121 -322 -326 -865 -455 -1208 l-235 -622 496 2 496 3 152 420 c84 231
258 710 387 1065 l234 645 1397 0 1398 0 68 -195 c38 -107 182 -519 320 -915
138 -396 275 -787 304 -870 l54 -150 526 -3 c317 -1 526 1 526 7 0 5 -23 71
-50 147 -28 75 -48 139 -46 141 4 5 651 238 1551 560 193 69 406 148 475 175
826 334 1330 832 1519 1503 133 474 102 912 -100 1382 -173 404 -455 716 -793
877 -218 105 -532 168 -873 178 -46 1 -83 3 -83 5 0 2 34 43 76 92 211 246
328 468 389 736 22 98 31 391 15 508 -39 293 -172 634 -334 861 -346 483 -894
734 -1506 689z m233 -917 c316 -95 522 -316 647 -695 220 -664 -79 -1150 -905
-1474 -147 -57 -1716 -619 -1720 -615 -9 10 -745 2052 -743 2060 2 5 260 102
573 214 314 113 694 249 846 304 303 109 500 168 684 205 165 33 168 33 360
30 151 -2 180 -5 258 -29z m-3553 -1136 c45 -129 131 -374 190 -545 59 -170
158 -454 220 -630 239 -685 343 -982 450 -1290 61 -176 120 -344 130 -372 l20
-53 -1120 0 -1120 0 11 28 c6 15 39 106 74 202 35 96 147 407 250 690 103 283
233 643 290 800 515 1423 513 1416 520 1408 2 -2 40 -109 85 -238z m4648
-1580 c182 -20 373 -85 499 -171 68 -47 197 -174 247 -244 181 -254 286 -630
257 -915 -44 -432 -279 -757 -721 -998 -156 -85 -149 -82 -1375 -522 -247 -89
-541 -194 -653 -234 -111 -41 -204 -71 -206 -67 -4 5 -789 2166 -832 2288 -10
29 -16 54 -13 57 4 4 734 267 1594 575 572 205 884 265 1203 231z"/>
</g>
</svg>
